<?xml version="1.0" standalone="no"?>
<!DOCTYPE svg PUBLIC "-//W3C//DTD SVG 20010904//EN"
 "http://www.w3.org/TR/2001/REC-SVG-20010904/DTD/svg10.dtd">
<svg version="1.0" xmlns="http://www.w3.org/2000/svg"
 width="260.000000pt" height="260.000000pt" viewBox="0 0 260.000000 260.000000"
 preserveAspectRatio="xMidYMid meet">
<metadata>
Created by potrace 1.11, written by Peter Selinger 2001-2013
</metadata>
<g transform="translate(0.000000,260.000000) scale(0.100000,-0.100000)"
fill="#000000" stroke="none">
<path d="M680 1360 l0 -390 80 0 80 0 0 185 0 185 150 0 150 0 0 -185 0 -185
95 0 95 0 0 285 c0 278 0 285 20 285 18 0 20 -7 20 -60 0 -57 1 -60 25 -60 23
0 25 -4 25 -40 0 -33 3 -40 20 -40 13 0 20 -7 20 -20 0 -13 7 -20 20 -20 16 0
20 -7 20 -35 0 -28 4 -35 20 -35 17 0 20 -7 20 -40 0 -33 3 -40 20 -40 16 0
20 -7 20 -35 0 -31 3 -35 25 -35 21 0 25 -5 25 -30 0 -23 4 -30 20 -30 15 0
20 -7 20 -25 l0 -25 105 0 105 0 0 390 0 390 -105 0 -105 0 0 -240 c0 -233 -1
-240 -20 -240 -16 0 -20 7 -20 35 0 31 -3 35 -25 35 -22 0 -25 4 -25 40 0 33
-3 40 -20 40 -16 0 -20 7 -20 35 0 28 -4 35 -20 35 -17 0 -20 7 -20 40 0 33
-3 40 -20 40 -13 0 -20 7 -20 20 0 13 -7 20 -20 20 -16 0 -20 7 -20 30 0 25
-4 30 -25 30 -22 0 -25 4 -25 40 l0 40 -115 0 -115 0 0 -165 0 -165 -150 0
-150 0 0 165 0 165 -80 0 -80 0 0 -390z"/>
</g>
</svg>
